<svg xmlns="http://www.w3.org/2000/svg" width="1280" height="640" viewBox="0 0 1280 640" role="img" aria-labelledby="title desc">
  <title id="title">outcome-receipts social preview</title>
  <desc id="desc">Every reported number connects through deterministic SQL to a verifiable receipt.</desc>
  <rect width="1280" height="640" fill="#071923"/>
  <circle cx="1130" cy="-10" r="300" fill="#0d3442"/>
  <circle cx="1240" cy="610" r="250" fill="#123344"/>
  <g fill="none" stroke="#70d6b4" stroke-width="4" stroke-linecap="round">
    <path d="M92 140h148"/>
    <path d="M92 164h92" opacity=".6"/>
  </g>
  <text x="92" y="258" fill="#f7fbfa" font-family="ui-monospace, SFMono-Regular, Menlo, Consolas, monospace" font-size="72" font-weight="700">outcome-receipts</text>
  <text x="92" y="330" fill="#b8d8d2" font-family="Inter, ui-sans-serif, system-ui, sans-serif" font-size="34">Draft funder reports where every number is a receipt.</text>
  <g transform="translate(92 416)" font-family="Inter, ui-sans-serif, system-ui, sans-serif" font-size="24" font-weight="650">
    <rect width="230" height="78" rx="16" fill="#0d3442" stroke="#2c6472" stroke-width="2"/>
    <text x="115" y="48" text-anchor="middle" fill="#e9f5f2">deterministic SQL</text>
    <path d="M230 39h56" stroke="#70d6b4" stroke-width="4"/>
    <path d="m275 27 14 12-14 12" fill="none" stroke="#70d6b4" stroke-width="4" stroke-linecap="round" stroke-linejoin="round"/>
    <rect x="288" width="190" height="78" rx="16" fill="#0d3442" stroke="#2c6472" stroke-width="2"/>
    <text x="383" y="48" text-anchor="middle" fill="#e9f5f2">receipt</text>
    <path d="M478 39h56" stroke="#70d6b4" stroke-width="4"/>
    <path d="m523 27 14 12-14 12" fill="none" stroke="#70d6b4" stroke-width="4" stroke-linecap="round" stroke-linejoin="round"/>
    <rect x="536" width="230" height="78" rx="16" fill="#0d3442" stroke="#2c6472" stroke-width="2"/>
    <text x="651" y="48" text-anchor="middle" fill="#e9f5f2">grounding gate</text>
    <path d="M766 39h56" stroke="#70d6b4" stroke-width="4"/>
    <path d="m811 27 14 12-14 12" fill="none" stroke="#70d6b4" stroke-width="4" stroke-linecap="round" stroke-linejoin="round"/>
    <rect x="824" width="218" height="78" rx="16" fill="#154b42" stroke="#70d6b4" stroke-width="2"/>
    <text x="933" y="48" text-anchor="middle" fill="#f7fbfa">verified report</text>
  </g>
  <text x="92" y="570" fill="#86aaa5" font-family="Inter, ui-sans-serif, system-ui, sans-serif" font-size="24">Offline-first • aggregate-only • human-approved • Apache-2.0</text>
</svg>
